<?xml version="1.0" standalone="no"?>
<!DOCTYPE svg PUBLIC "-//W3C//DTD SVG 20010904//EN"
 "http://www.w3.org/TR/2001/REC-SVG-20010904/DTD/svg10.dtd">
<svg version="1.0" xmlns="http://www.w3.org/2000/svg"
 width="650.000000pt" height="650.000000pt" viewBox="0 0 650.000000 650.000000"
 preserveAspectRatio="xMidYMid meet">
<metadata>
Created by potrace 1.11, written by Peter Selinger 2001-2013
</metadata>
<g transform="translate(0.000000,650.000000) scale(0.100000,-0.100000)"
fill="#000000" stroke="none">
<path d="M3077 4894 c-1 -1 -50 -4 -109 -8 -59 -3 -113 -8 -120 -11 -7 -2 -38
-6 -68 -10 -171 -18 -451 -100 -600 -175 -177 -88 -299 -182 -408 -312 -213
-254 -350 -567 -487 -1108 -15 -58 -37 -132 -50 -165 -108 -278 -160 -642
-131 -905 l7 -66 -58 -24 c-212 -86 -399 -210 -405 -269 0 -9 -2 -23 -3 -31
-2 -20 14 -52 34 -68 38 -30 79 -42 231 -67 19 -3 134 -8 255 -11 207 -6 223
-7 271 -31 85 -40 265 -77 524 -107 30 -4 71 -9 90 -11 19 -3 71 -7 115 -11
44 -3 93 -7 109 -9 217 -27 1434 -28 1791 -1 103 8 212 18 235 21 14 2 54 6
90 10 36 3 72 8 80 10 8 2 40 7 70 10 30 3 62 8 70 10 8 2 29 7 45 9 138 24
216 46 270 76 25 14 69 18 230 23 110 4 211 8 225 11 14 2 46 7 73 11 56 7
134 34 163 55 27 20 44 52 39 76 -2 10 -4 24 -4 30 -2 20 -76 90 -137 129 -32
21 -109 63 -171 92 -100 48 -111 56 -106 76 10 36 12 368 3 427 -5 30 -11 73
-14 96 -18 140 -50 261 -129 479 -21 57 -58 174 -62 195 -6 30 -106 328 -137
405 -51 129 -153 350 -168 365 -3 3 -14 21 -24 40 -28 51 -152 236 -184 272
-121 141 -255 232 -462 318 -114 47 -362 112 -480 126 -19 2 -49 6 -66 9 -65
11 -427 27 -437 19z"/>
</g>
</svg>
