<?xml version="1.0" standalone="no"?>
<!DOCTYPE svg PUBLIC "-//W3C//DTD SVG 20010904//EN"
 "http://www.w3.org/TR/2001/REC-SVG-20010904/DTD/svg10.dtd">
<svg version="1.0" xmlns="http://www.w3.org/2000/svg"
 width="400.000000pt" height="400.000000pt" viewBox="0 0 400.000000 400.000000"
 preserveAspectRatio="xMidYMid meet">
<metadata>
Created by potrace 1.11, written by Peter Selinger 2001-2013
</metadata>
<g transform="translate(0.000000,400.000000) scale(0.100000,-0.100000)"
fill="#000000" stroke="none">
<path d="M978 3995 c-1 -2 -28 -6 -58 -9 -30 -3 -86 -12 -125 -21 -38 -8 -73
-15 -77 -15 -10 0 -10 -27 0 -32 4 -1 38 -39 77 -83 38 -44 86 -98 106 -119
l37 -39 52 22 c29 12 54 20 57 17 3 -2 -9 -25 -27 -51 -32 -46 -32 -53 0 -85
3 -3 39 -43 80 -90 41 -47 80 -91 87 -97 9 -11 29 -5 97 28 48 23 89 39 92 36
5 -5 -37 -79 -82 -144 -14 -20 -12 -25 42 -90 32 -37 63 -72 69 -78 6 -5 42
-46 81 -90 38 -44 79 -90 91 -104 l21 -24 54 25 c29 14 55 24 57 22 2 -2 -9
-25 -25 -51 -16 -26 -27 -51 -26 -55 3 -13 -9 -9 -42 11 -51 31 -217 89 -317
110 -192 42 -438 47 -604 15 -11 -2 -33 -7 -49 -9 -59 -11 -173 -57 -238 -95
-139 -83 -263 -224 -372 -423 -14 -26 -26 -52 -26 -57 0 -5 75 -8 177 -7 l177
2 15 58 c8 31 18 57 21 57 3 0 13 -26 21 -57 l15 -58 331 -2 331 -1 29 99 c15
54 30 99 33 99 5 0 35 -96 46 -150 9 -41 24 -51 73 -49 68 2 70 0 22 -21 -193
-88 -361 -235 -430 -375 -44 -91 -61 -171 -67 -312 -5 -135 0 -149 47 -114 15
11 30 21 33 21 9 0 141 83 147 93 4 5 2 23 -3 39 -14 40 -3 46 30 15 l28 -27
107 65 c60 36 112 65 117 65 5 0 10 3 12 8 2 4 44 31 93 61 50 30 91 55 93 56
2 2 -4 31 -13 65 -9 34 -15 66 -13 71 2 4 25 -12 53 -36 27 -25 54 -45 60 -45
6 0 27 11 47 25 35 24 36 26 27 61 -14 47 -5 53 27 21 15 -15 29 -27 33 -27 3
0 35 18 70 39 l64 40 19 -24 c26 -33 99 -59 146 -51 l39 6 4 -78 c1 -42 3
-180 3 -307 0 -424 -58 -725 -196 -1027 l-31 -68 -51 -1 c-66 -1 -169 -9 -336
-25 -98 -10 -342 -54 -461 -84 -295 -75 -539 -187 -666 -307 -56 -52 -103
-130 -103 -169 0 -69 -144 -64 1791 -64 l1748 0 20 26 c26 33 26 45 2 92 -81
157 -327 303 -676 400 -102 29 -260 63 -347 76 -21 3 -55 9 -75 12 -21 3 -45
7 -53 9 -8 2 -51 7 -95 11 -44 4 -89 8 -100 9 -11 1 -26 3 -33 4 -12 1 -12 5
3 111 22 160 26 583 6 750 -15 130 -55 330 -81 406 -11 32 -19 58 -18 59 2 1
18 7 36 15 33 13 92 72 92 91 0 17 17 8 170 -91 l141 -92 55 47 c30 26 57 46
59 44 2 -3 -5 -34 -15 -71 -17 -62 -17 -67 -2 -81 45 -39 93 -44 106 -12 3 8
12 15 19 15 12 0 12 -7 4 -40 -6 -22 -9 -41 -6 -43 32 -25 403 -257 411 -257
15 0 4 158 -18 247 -37 155 -157 352 -285 467 -178 161 -365 254 -542 270 -45
4 -79 16 -46 16 8 0 46 10 85 22 l72 23 -3 77 c-1 43 1 78 5 78 4 0 26 -29 49
-64 l42 -64 47 15 c84 26 312 93 317 93 3 0 5 24 6 53 0 52 0 52 17 28 43 -62
40 -61 114 -38 l66 20 -2 36 c-4 59 4 64 35 22 l28 -40 43 14 c24 7 91 28 151
46 59 18 107 35 107 40 0 23 -139 119 -245 168 -265 123 -620 112 -920 -28
-158 -74 -255 -162 -330 -302 l-30 -56 -1 121 c-4 348 -143 656 -430 952 -139
143 -295 237 -459 275 -46 11 -278 22 -287 14z m902 -1222 c0 -5 -7 -16 -14
-26 -12 -16 -17 -16 -35 -5 l-21 13 23 12 c25 14 47 17 47 6z m513 -306 c-33
-20 -46 8 -34 73 1 2 12 -11 25 -30 20 -29 21 -36 9 -43z m-975 10 c10 -36 9
-39 -15 -48 -14 -5 -29 -8 -33 -7 -4 2 0 27 8 56 16 58 25 57 40 -1z"/>
</g>
</svg>
